<?xml version="1.0" encoding="UTF-8"?>
<svg width="13587px" height="2283px" viewBox="0 0 13587 2283" version="1.1" xmlns="http://www.w3.org/2000/svg" xmlns:xlink="http://www.w3.org/1999/xlink">
    <!-- Generator: Sketch 52.5 (67469) - http://www.bohemiancoding.com/sketch -->
    <title>live</title>
    <desc>Created with Sketch.</desc>
    <g id="Page-1" stroke="none" stroke-width="1" fill="none" fill-rule="evenodd">
        <g id="live" fill="#FFFFFF">
            <path d="M1004,9.4 C919,20 809.7,45.5 740.7,72.4 C664.1,101.4 570.1,148.2 570.1,157.4 C570.1,163.1 586.8,168 614,170.9 C711.5,182.2 892.6,259.4 1056.3,357.8 C1096,381.9 1135,401.7 1142,401.7 C1149.7,401.7 1188,381.9 1227,357.8 C1320.3,300.5 1474.3,224.7 1545.3,200.6 C1577.3,190 1627.5,177.9 1657.4,173 C1693.6,168 1712.4,161.7 1712.4,156 C1712.4,135.5 1550.1,65.4 1437.3,37.1 C1288.9,-0.5 1152.4,-9 1004,9.4 Z M330.5,339.3 C144.5,531.9 43.5,740.7 9.4,1008.3 C-6.6,1132.9 -2.4,1239.1 24,1375 C49.8,1506 109,1653.2 178.6,1757.3 C224.6,1826.7 232.2,1826 237.8,1751.6 C259.4,1472.7 472.5,1089.6 827,696 C857.6,661.3 883.4,628.7 883.4,624.5 C883.4,614.6 777.5,509.8 699.5,441.8 C595,351.2 459.2,266.9 419.5,266.9 C404.3,267.1 384.8,283.3 330.5,339.3 Z M1811.9,287.6 C1723.4,330.8 1604.3,421.4 1489.4,534 C1443.4,578.6 1405.8,620.4 1405.8,626 C1405.8,631.6 1439.9,674.9 1481.7,722.3 C1782.6,1062.8 1973.4,1387.8 2032.6,1659.7 C2040.3,1694.4 2046.5,1741.8 2046.5,1765.9 C2046.5,1805.5 2047.9,1810.5 2059.7,1810.5 C2075.7,1810.5 2139.1,1711.4 2178.8,1622.9 C2259.6,1446.6 2288.1,1300.1 2281.2,1097.6 C2274.2,863.3 2211.6,671.4 2082.7,487.3 C2023.5,402.3 1893.3,267.1 1871,267.1 C1862.1,267.1 1835.6,276.3 1811.9,287.6 Z M1064.6,912.7 C899.5,1058.5 681.5,1287.9 557.6,1447.2 C426,1615.7 284.6,1843.7 284.6,1886.1 C284.6,1899.6 357.7,1975.3 423.9,2031.2 C656.5,2226.6 994.3,2317.2 1311.9,2269.8 C1557.1,2233 1779.9,2119.7 1965.2,1938.5 C1993.8,1910.9 1997.9,1903.1 1997.9,1877.6 C1997.2,1747.3 1745.8,1424.5 1330,1020.2 C1217.2,910.5 1154.5,854.5 1144.7,854.5 C1136.3,854.7 1102.2,879.5 1064.6,912.7 Z" id="Shape" fill-rule="nonzero"></path>
            <g id="Group" transform="translate(2513.000000, 313.000000)">
                <polygon id="Path" points="59 40.1 660.6 857.3 0.9 1756.1 226.8 1756.1 774.3 1012.1 1322.4 1756.1 1548.1 1756.1 888.4 857.3 1490.5 40.1 1264.8 40.1 774.1 706.8 283.9 40.1"></polygon>
                <polygon id="Path" points="4555.9 40.1 5158 857.3 4498.6 1756.4 4724.5 1756.4 5272.3 1012.1 5820.3 1756.4 6046 1756.4 5386.3 857.3 5987.9 40.1 5762.5 40.1 5272.3 706.8 4781.5 40.1"></polygon>
                <path d="M3857.3,0.3 C3375.3,0.3 3038.5,369.1 3038.5,897 C3038.5,1425.7 3375.4,1794.2 3857.3,1794.2 C4339,1794.2 4674.8,1425.7 4674.8,897 C4674.8,369.1 4339,0.3 3857.3,0.3 Z M3857.3,182 C4224,182 4479.9,476 4479.9,897.1 C4479.9,1318.5 4223.9,1613 3857.3,1613 C3490.1,1613 3232.8,1318.5 3232.8,897.1 C3232.8,476 3490.1,182 3857.3,182 Z" id="Shape" fill-rule="nonzero"></path>
                <path d="M1641.8,40.1 L1641.8,780 L1409.7,780 C1379.5,819.2 1311.2,913.4 1285.1,952.1 L1641.8,952.1 L1641.8,1756.1 L2338.8,1756.4 C2716.3,1756.4 2950.9,1564.6 2950.9,1255.4 C2950.9,1120.3 2899.8,1005.3 2802.8,922.2 C2767,891.7 2728.1,868 2690.4,850.6 C2814.9,783 2896.6,655.3 2896.6,507.1 C2896.6,397.3 2856.2,40.1 2338.8,40.1 L1641.8,40.1 Z M1834.5,219.2 L2338.8,219.2 C2475.4,219.2 2703.9,253.1 2703.9,491.9 C2703.9,672.4 2570.7,780 2338.8,780 L1834.5,780 L1834.5,219.2 Z M1834.5,952.4 L2338.8,952.4 C2530,952.4 2758.8,1005.3 2758.8,1251.6 C2758.8,1534.8 2495.8,1577.2 2338.8,1577.2 L1834.5,1577.2 L1834.5,952.4 Z" id="Shape" fill-rule="nonzero"></path>
            </g>
            <g id="Group" opacity="0.4" transform="translate(9164.000000, 352.000000)">
                <polygon id="Path" points="206.8 0.3 0.4 0.8 0.4 1715.8 1141.6 1715.8 1141.6 1525.8 206.3 1525.8"></polygon>
                <path d="M4421.5,0.5 C4421.5,0.5 3607.2,0.8 3207.3,0.8 L3207.3,1715.8 L4422.6,1715.8 L4422.6,1525.8 L3413.2,1525.8 L3413.2,940.2 L4347.2,941 L4348.6,750.2 L3413.3,750.2 L3413.3,190.8 L4420.8,190.8 L4421.5,0.5 Z" id="Path"></path>
                <rect id="Rectangle" x="1268.3" y="0.8" width="200.8" height="1715"></rect>
                <polygon id="Path" points="1622.4 0.8 2224.7 1715.8 2488.8 1715.8 3096.3 0.8 2879.8 0.8 2356.6 1478.5 1839.1 0.8"></polygon>
            </g>
        </g>
    </g>
</svg>